<?xml version="1.0" encoding="iso-8859-1"?>
<!-- Generator: Adobe Illustrator 19.0.0, SVG Export Plug-In . SVG Version: 6.00 Build 0)  -->
<svg version="1.1" id="Capa_1" xmlns="http://www.w3.org/2000/svg" xmlns:xlink="http://www.w3.org/1999/xlink" x="0px" y="0px"
	 viewBox="0 0 512 512" style="enable-background:new 0 0 512 512;" xml:space="preserve">
<g>
	<path style="fill:#D3C7A1;" d="M431.326,512c-8.692,0-16.168-4.008-17.776-9.53l0,0c-0.416-1.427-0.44-2.941-0.068-4.38v-0.001
		c1.477-5.724,8.981-9.878,17.843-9.878c8.299,0,15.701,3.822,17.6,9.089l0.001,0.002c0.653,1.812,0.653,3.796,0,5.608l-0.001,0.002
		C447.026,508.178,439.624,512,431.326,512z"/>
	<path style="fill:#D3C7A1;" d="M342.897,512c-8.692,0-16.168-4.008-17.776-9.53l0,0c-0.416-1.427-0.44-2.941-0.068-4.38v-0.001
		c1.477-5.724,8.981-9.878,17.843-9.878c8.299,0,15.701,3.822,17.6,9.089l0.001,0.002c0.653,1.812,0.653,3.796,0,5.608l-0.001,0.002
		C358.598,508.178,351.196,512,342.897,512z"/>
	<path style="fill:#D3C7A1;" d="M80.691,512c-8.692,0-16.168-4.008-17.776-9.53l0,0c-0.416-1.427-0.44-2.941-0.068-4.38v-0.001
		c1.477-5.724,8.981-9.878,17.843-9.878c8.299,0,15.701,3.822,17.6,9.089l0.001,0.002c0.653,1.812,0.653,3.796,0,5.608l-0.001,0.002
		C96.392,508.178,88.99,512,80.691,512z"/>
</g>
<path style="fill:#F4F1E6;" d="M358.232,273.277c-0.589-0.095-1.12-0.554-1.292-1.116l-0.021-0.066
	c-0.156-0.56-0.018-1.149,0.368-1.548c2.72-2.814,4.219-6.511,4.219-10.409c0-8.27-6.728-14.998-14.998-14.998
	c-0.28,0-0.556,0.01-0.812,0.027l-0.11,0.003c-0.539,0-1.006-0.262-1.3-0.751c-0.292-0.494-0.271-1.114,0.057-1.584
	c2.024-2.906,2.952-6.466,2.612-10.019c-0.385-4.067-2.505-7.861-5.814-10.409l-10.341-7.961l-23.202-11.874l-3.656-2.072
	c-0.111-0.063-0.179-0.114-0.215-0.146c-0.384-0.328-0.556-0.842-0.453-1.341c0.422-2.027,0.413-4.098-0.026-6.152
	c-1.08-5.05-4.794-9.263-9.694-10.993l-9.73-3.436l-25.735-3.882l-7.106,0.05c-1.056-0.266-2.155-0.516-3.274-0.745
	c0.008-0.134,0.016-0.269,0.019-0.404l0.003-0.219c0-8.258-6.728-14.977-14.998-14.977c-8.27,0-14.998,6.728-14.998,14.998v0.134
	c0,0,0.013,0.345,0.022,0.469c-0.535,0.109-1.066,0.223-1.596,0.344c-0.175,0.04-0.354,0.06-0.535,0.06
	c-0.71,0-1.394-0.301-1.881-0.831c-2.873-3.114-6.783-4.83-11.007-4.83c-8.27,0-14.998,6.728-14.998,14.998
	c0,0.043,0.003,0.174,0.008,0.311h-0.004c0.008,0.305-0.17,0.599-0.444,0.73c-0.096,0.046-0.199,0.068-0.308,0.068
	c-0.102,0-0.3-0.022-0.477-0.171c-2.693-2.272-6.122-3.523-9.654-3.523c-0.603,0-1.215,0.036-1.826,0.109
	c-6.327,0.759-11.479,5.477-12.819,11.739c-0.448,2.086-0.45,4.185-0.009,6.239c0.103,0.483-0.064,0.981-0.435,1.299
	c-0.23,0.197-0.519,0.304-0.817,0.304c-0.152,0-0.303-0.028-0.448-0.084c-1.713-0.657-3.514-0.99-5.353-0.99
	c-0.684,0-1.378,0.047-2.062,0.14c-6.107,0.823-11.149,5.445-12.547,11.495c-0.582,2.521-0.511,5.055,0.215,7.532
	c0.119,0.409-0.002,0.885-0.31,1.223l-0.044,0.046c-0.318,0.33-0.668,0.399-0.905,0.399c-0.168,0-0.337-0.034-0.507-0.102
	c-1.78-0.716-3.65-1.079-5.561-1.079c-0.483,0-0.972,0.024-1.457,0.07c-7.131,0.691-12.795,6.355-13.468,13.46
	c-0.344,3.611,0.56,7.078,2.616,10.029c0.324,0.465,0.344,1.085,0.038,1.602l-0.018,0.029c-0.277,0.444-0.742,0.697-1.277,0.697
	l-0.083-0.001c-0.274-0.019-0.55-0.028-0.831-0.028c-8.27,0-14.998,6.728-14.998,14.998c0,3.896,1.496,7.589,4.208,10.396
	c0.402,0.416,0.542,1.029,0.368,1.598c-0.177,0.579-0.706,1.049-1.285,1.142c-7.302,1.173-12.601,7.392-12.601,14.79
	c0,6.172,3.884,11.8,9.606,13.978l1.86,1.02h251.117l2.065,0.026l1.859-1.02c5.78-2.204,9.664-7.832,9.664-14.004
	C370.817,280.674,365.523,274.455,358.232,273.277z"/>
<path style="fill:#E2CFB5;" d="M166.419,288.065c0-7.398,5.299-13.617,12.601-14.79c0.579-0.093,1.108-0.563,1.285-1.142
	c0.174-0.569,0.033-1.182-0.368-1.598c-2.712-2.807-4.208-6.501-4.208-10.396c0-8.27,6.728-14.998,14.998-14.998
	c0.28,0,0.556,0.01,0.831,0.028l0.083,0.001c0.537,0,1.001-0.253,1.277-0.697l0.018-0.029c0.306-0.517,0.285-1.138-0.038-1.602
	c-2.056-2.951-2.96-6.419-2.616-10.029c0.673-7.106,6.338-12.769,13.468-13.46c0.485-0.047,0.974-0.07,1.457-0.07
	c1.91,0,3.781,0.364,5.561,1.079c0.17,0.068,0.339,0.102,0.507,0.102c0.237,0,0.588-0.069,0.905-0.399l0.044-0.046
	c0.308-0.337,0.429-0.814,0.31-1.223c-0.726-2.477-0.797-5.012-0.215-7.532c1.397-6.05,6.44-10.67,12.547-11.495
	c0.685-0.092,1.379-0.14,2.062-0.14c1.838,0,3.64,0.333,5.353,0.99c0.145,0.056,0.295,0.084,0.448,0.084
	c0.298,0,0.587-0.108,0.817-0.304c0.371-0.319,0.539-0.817,0.435-1.299c-0.441-2.053-0.439-4.153,0.009-6.239
	c1.339-6.262,6.49-10.98,12.819-11.739c0.61-0.072,1.223-0.109,1.826-0.109c3.531,0,6.96,1.251,9.654,3.523
	c0.177,0.149,0.374,0.171,0.477,0.171c0.109,0,0.212-0.023,0.308-0.068c0.274-0.131,0.452-0.425,0.444-0.73h0.004
	c-0.005-0.137-0.008-0.268-0.008-0.311c0-3.127,0.964-6.031,2.608-8.436l-4.03-0.608l-7.106,0.05
	c-1.056-0.266-2.155-0.516-3.274-0.745c0.008-0.134,0.016-0.269,0.019-0.404l0.003-0.219c0-8.258-6.728-14.977-14.998-14.977
	c-8.27,0-14.998,6.728-14.998,14.998v0.134c0,0,0.013,0.345,0.022,0.469c-0.535,0.109-1.066,0.223-1.596,0.344
	c-0.175,0.04-0.354,0.06-0.535,0.06c-0.71,0-1.394-0.301-1.881-0.831c-2.873-3.114-6.783-4.83-11.007-4.83
	c-8.27,0-14.998,6.728-14.998,14.998c0,0.043,0.003,0.174,0.008,0.311h-0.004c0.008,0.305-0.17,0.599-0.444,0.73
	c-0.096,0.046-0.199,0.068-0.308,0.068c-0.102,0-0.3-0.022-0.477-0.171c-2.693-2.272-6.122-3.523-9.654-3.523
	c-0.603,0-1.215,0.036-1.826,0.109c-6.327,0.759-11.479,5.477-12.819,11.739c-0.448,2.086-0.45,4.185-0.009,6.239
	c0.103,0.483-0.064,0.981-0.435,1.299c-0.23,0.197-0.519,0.304-0.817,0.304c-0.152,0-0.303-0.028-0.448-0.084
	c-1.713-0.657-3.514-0.99-5.353-0.99c-0.684,0-1.378,0.047-2.062,0.14c-6.107,0.823-11.149,5.445-12.547,11.495
	c-0.582,2.521-0.511,5.055,0.215,7.532c0.119,0.409-0.002,0.885-0.31,1.223l-0.044,0.046c-0.318,0.33-0.668,0.399-0.905,0.399
	c-0.168,0-0.337-0.034-0.507-0.102c-1.78-0.716-3.65-1.079-5.561-1.079c-0.483,0-0.972,0.024-1.457,0.07
	c-7.131,0.691-12.795,6.355-13.468,13.46c-0.344,3.611,0.56,7.078,2.616,10.029c0.324,0.465,0.344,1.085,0.038,1.602l-0.018,0.029
	c-0.277,0.444-0.742,0.697-1.277,0.697l-0.083-0.001c-0.274-0.019-0.55-0.028-0.831-0.028c-8.27,0-14.998,6.728-14.998,14.998
	c0,3.896,1.496,7.589,4.208,10.396c0.402,0.416,0.542,1.029,0.368,1.598c-0.177,0.579-0.706,1.049-1.285,1.142
	c-7.302,1.173-12.601,7.392-12.601,14.79c0,6.172,3.884,11.8,9.606,13.978l1.86,1.02h71.773l-1.86-1.02
	C170.303,299.864,166.419,294.237,166.419,288.065z"/>
<g>
	<path style="fill:#68594E;" d="M316.812,239.99c-1.165-0.48-2.408-0.74-3.667-0.766l-4.726-0.102
		c-2.368-0.051-4.174-2.136-3.884-4.487c0.295-2.398,0.602-4.89,0.608-4.931l19.511-215.608c0.252-2.808,1.599-5.341,3.793-7.124
		c1.837-1.499,4.162-2.327,6.537-2.327c0.382,0,0.777,0.021,1.185,0.067l12.481,1.43c2.739,0.314,5.335,1.565,7.105,3.68
		c1.908,2.281,2.737,5.177,2.33,8.103l-30.687,221.016c-0.36,2.59-3.067,4.144-5.484,3.149L316.812,239.99z"/>
	<path style="fill:#68594E;" d="M262.978,216.63c-2.227-0.233-3.935-2.083-3.988-4.323l-4.813-201.674
		c-0.073-2.949,1.08-5.734,3.239-7.784c2-1.901,4.725-2.849,7.483-2.849h12.27c2.435,0,4.85,0.735,6.748,2.261
		c2.586,2.079,3.99,5.125,3.91,8.379l-4.85,203.245c-0.062,2.599-2.328,4.592-4.914,4.323L262.978,216.63z"/>
</g>
<g>
	<polygon style="fill:#5B4A3F;" points="319.831,67.389 321.883,44.72 353.857,48.385 350.727,70.93 	"/>
	<polygon style="fill:#5B4A3F;" points="255.454,64.129 254.91,41.374 287.094,41.374 286.55,64.129 	"/>
</g>
<path style="fill:#EFE5AB;" d="M180.737,510.966c-5.265,0-9.548-4.284-9.548-9.549v-35.962h123.087v35.962
	c0,5.265-4.284,9.549-9.548,9.549H180.737z"/>
<path style="fill:#DDBA76;" d="M235.825,501.417v-35.962h-64.636v35.962c0,5.265,4.284,9.549,9.548,9.549h64.636
	C240.108,510.966,235.825,506.681,235.825,501.417z"/>
<path style="fill:#FCF7C5;" d="M203.162,486.141c-67.643,0-122.479-54.836-122.479-122.479v-56.374c0-2.905,2.355-5.26,5.26-5.26
	H379.52c2.905,0,5.26,2.355,5.26,5.26v56.374c0,67.643-54.836,122.479-122.479,122.479H203.162z"/>
<path d="M350.287,246.97c-0.002,0.003-0.005,0.007-0.007,0.011C350.282,246.977,350.285,246.973,350.287,246.97z"/>
<path d="M141.685,213.637c0.005,0.002,0.009,0.003,0.013,0.005C141.694,213.642,141.689,213.64,141.685,213.637z"/>
<g>
	<path style="fill:#D3C7A1;" d="M165.299,264.325c-1.418,0-2.522-1.282-2.264-2.676c1.258-6.823,7.237-11.99,14.423-11.99
		c7.186,0,13.165,5.169,14.423,11.99c0.258,1.394-0.846,2.676-2.264,2.676H165.299z"/>
	<path style="fill:#D3C7A1;" d="M209.776,216.335c-1.418,0-2.522-1.282-2.264-2.676c1.258-6.823,7.237-11.99,14.423-11.99
		s13.165,5.169,14.423,11.99c0.258,1.394-0.846,2.676-2.264,2.676H209.776z"/>
	<path style="fill:#D3C7A1;" d="M264.133,242.037c-1.241-0.686-1.587-2.342-0.687-3.438c4.402-5.362,12.135-6.992,18.424-3.515
		c6.289,3.476,9.021,10.893,6.82,17.472c-0.45,1.345-2.036,1.932-3.277,1.246L264.133,242.037z"/>
</g>
<path style="fill:#F4DE9F;" d="M313.639,344.752H163.077c-9.808,0-17.759-7.951-17.759-17.759v-19.705c0-2.905,2.355-5.26,5.26-5.26
	H85.942c-2.905,0-5.26,2.355-5.26,5.26v56.374c0.001,67.644,54.837,122.48,122.48,122.48h59.14c0.919,0,1.834-0.014,2.748-0.035
	c-66.374-1.462-119.73-55.72-119.73-122.443v-0.483h168.636c5.292,0,9.541-4.461,9.193-9.827
	C322.832,348.456,318.547,344.752,313.639,344.752z"/>
<g>
	<path style="fill:#5B4A3F;" d="M271.003,0h-6.104c-2.759,0-5.483,0.947-7.483,2.848c-2.159,2.051-3.312,4.837-3.239,7.784
		l4.813,201.674c0.054,2.238,1.761,4.089,3.988,4.323l8.024,0.84V0z"/>
	<path style="fill:#5B4A3F;" d="M336.17,4.712c-0.41-0.047-0.804-0.067-1.185-0.067c-2.375,0-4.7,0.83-6.537,2.327
		c-2.194,1.782-3.541,4.314-3.793,7.124l-19.511,215.608c-0.006,0.04-0.312,2.533-0.608,4.931c-0.29,2.351,1.515,4.436,3.884,4.487
		l4.726,0.102c0.714,0.016,1.421,0.114,2.113,0.276L344.907,5.714L336.17,4.712z"/>
</g>
<g>
</g>
<g>
</g>
<g>
</g>
<g>
</g>
<g>
</g>
<g>
</g>
<g>
</g>
<g>
</g>
<g>
</g>
<g>
</g>
<g>
</g>
<g>
</g>
<g>
</g>
<g>
</g>
<g>
</g>
</svg>
